<svg xmlns="http://www.w3.org/2000/svg" viewBox="0 0 24 24" fill="none" stroke="currentColor" stroke-width="2" stroke-linecap="round" stroke-linejoin="round">
  <!-- Droplet shape -->
  <path d="M12 2.69l5.66 5.66a8 8 0 1 1-11.31 0z"/>
  <!-- Small flame inside -->
  <path d="M12 9 C12 9, 11 10, 11 11 C11 11.5, 11.3 12, 11.7 12.3 C11.5 12.1, 11.3 11.8, 11.3 11.5 C11.3 11.5, 11.1 11.8, 11.1 12.2 C11.1 13, 11.6 13.5, 12 13.5 C12.4 13.5, 12.9 13, 12.9 12.2 C12.9 11.8, 12.7 11.5, 12.7 11.5 C12.7 11.8, 12.5 12.1, 12.3 12.3 C12.7 12, 13 11.5, 13 11 C13 10, 12 9, 12 9 Z" fill="currentColor" stroke="none"/>
</svg>

