<svg xmlns="http://www.w3.org/2000/svg" viewBox="0 0 24 24" fill="currentColor">
  <!-- Chile pepper body -->
  <path d="M12 4 Q10 4 9 6 Q8 8 8 10 Q8 12 8.5 14 Q9 16 10 18 Q10.5 19 11 20 Q11.5 21 12 22 Q12.5 21 13 20 Q13.5 19 14 18 Q15 16 15.5 14 Q16 12 16 10 Q16 8 15 6 Q14 4 12 4 Z" fill="currentColor"/>
  
  <!-- Flame on top of pepper -->
  <path d="M12 2 C12 2, 11 3, 11 4 C11 4.5, 11.3 5, 11.7 5.3 C11.5 5.1, 11.2 4.8, 11.2 4.5 C11.2 4.5, 11 4.8, 11 5.3 C11 6, 11.5 6.5, 12 6.5 C12.5 6.5, 13 6, 13 5.3 C13 4.8, 12.8 4.5, 12.8 4.5 C12.8 4.8, 12.5 5.1, 12.3 5.3 C12.7 5, 13 4.5, 13 4 C13 3, 12 2, 12 2 Z" fill="#FF6B00" stroke="none"/>
  
  <!-- Highlight/shine on pepper -->
  <ellipse cx="10.5" cy="10" rx="1.5" ry="3" fill="white" opacity="0.3"/>
</svg>

