<svg xmlns="http://www.w3.org/2000/svg" viewBox="0 0 24 24" fill="none" stroke="currentColor" stroke-width="2" stroke-linecap="round" stroke-linejoin="round">
  <!-- Torch handle -->
  <rect x="10" y="10" width="4" height="12" rx="1"/>
  <!-- Flame -->
  <path d="M8 8 C8 8, 7 6, 7 4.5 C7 3.5, 7.5 2.5, 8.5 2 C8.2 2.5, 8 3, 8 3.5 C8 3.5, 8.5 3, 9 3 C9.5 3, 10 3.5, 10 4 C10 3.5, 10.5 3, 11 3 C11.5 3, 12 3.5, 12 4.5 C12 5, 11.8 5.5, 11.5 6 C11.8 5.8, 12 5.5, 12 5 C12 5, 12.5 5.5, 13 6 C13.5 6.5, 14 7, 14 8 C14 8, 15 7, 15 5.5 C15 4, 14 2.5, 12 2 C12 2, 16 3, 16 6 C16 8, 15 9, 14 9.5 C13 10, 10 10, 9 9.5 C8 9, 7 8.5, 7 7 C7 8, 8 8.5, 8 8 Z"/>
</svg>

