<svg xmlns="http://www.w3.org/2000/svg" viewBox="0 0 100 100">
  <defs>
    <linearGradient id="flameGradient" x1="0%" y1="0%" x2="0%" y2="100%">
      <stop offset="0%" style="stop-color:#FF6B00;stop-opacity:1" />
      <stop offset="50%" style="stop-color:#FF4500;stop-opacity:1" />
      <stop offset="100%" style="stop-color:#FF0000;stop-opacity:1" />
    </linearGradient>
  </defs>
  
  <!-- Flame shape -->
  <path d="M50 10 C50 10, 35 25, 35 40 C35 48, 38 55, 42 60 C38 57, 32 52, 32 45 C32 45, 28 50, 28 58 C28 70, 35 80, 50 85 C65 80, 72 70, 72 58 C72 50, 68 45, 68 45 C68 52, 62 57, 58 60 C62 55, 65 48, 65 40 C65 25, 50 10, 50 10 Z" 
        fill="url(#flameGradient)" 
        stroke="#8B0000" 
        stroke-width="1.5"/>
  
  <!-- Inner flame detail -->
  <path d="M50 25 C50 25, 42 35, 42 45 C42 50, 44 55, 50 58 C56 55, 58 50, 58 45 C58 35, 50 25, 50 25 Z" 
        fill="#FFD700" 
        opacity="0.8"/>
</svg>





